HIERARCHY
ROOT Pelvis
{
	OFFSET 0.000000 0.000000 0.000000
	CHANNELS 6 Xposition Yposition Zposition Xrotation Yrotation Zrotation
	JOINT LeftUpLeg_virtual
	{
		OFFSET 0.000000 0.000000 0.000000
		CHANNELS 3 Xrotation Yrotation Zrotation
		JOINT LeftUpLeg
		{
			OFFSET 18.735201 -5.666702 -4.541200
			CHANNELS 3 Xrotation Yrotation Zrotation
			JOINT LeftLeg
			{
				OFFSET -0.021200 -31.938179 0.493100
				CHANNELS 3 Xrotation Yrotation Zrotation
				JOINT LeftFoot
				{
					OFFSET 0.021200 -31.938179 -4.336299
					CHANNELS 3 Xrotation Yrotation Zrotation
					JOINT LeftToeBase
					{
						OFFSET 0.943001 -26.722000 15.023500
						CHANNELS 3 Xrotation Yrotation Zrotation
						End Site
						{
							OFFSET 0 0 0
						}
					}
				}
			}
		}
	}
	JOINT RightUpLeg_virtual
	{
		OFFSET 0.000000 0.000000 0.000000
		CHANNELS 3 Xrotation Yrotation Zrotation
		JOINT RightUpLeg
		{
			OFFSET -18.735201 -5.666702 -4.541200
			CHANNELS 3 Xrotation Yrotation Zrotation
			JOINT RightLeg
			{
				OFFSET 0.018946 -31.938133 0.493100
				CHANNELS 3 Xrotation Yrotation Zrotation
				JOINT RightFoot
				{
					OFFSET -0.018946 -31.938126 -4.336299
					CHANNELS 3 Xrotation Yrotation Zrotation
					JOINT RightToeBase
					{
						OFFSET -0.943001 -26.722004 15.023500
						CHANNELS 3 Xrotation Yrotation Zrotation
						End Site
						{
							OFFSET 0 0 0
						}
					}
				}
			}
		}
	}
	JOINT Hips_virtual
	{
		OFFSET 0.000000 0.000000 0.000000
		CHANNELS 3 Xrotation Yrotation Zrotation
		JOINT Hips
		{
			OFFSET -0.000000 -0.000000 -0.000000
			CHANNELS 3 Xrotation Yrotation Zrotation
			JOINT Spine
			{
				OFFSET 0.000000 10.199997 -0.299500
				CHANNELS 3 Xrotation Yrotation Zrotation
				JOINT Spine1
				{
					OFFSET 0.000000 11.900002 -1.516600
					CHANNELS 3 Xrotation Yrotation Zrotation
					JOINT Spine2
					{
						OFFSET 0.000000 13.600006 -2.842500
						CHANNELS 3 Xrotation Yrotation Zrotation
						JOINT Neck_virtual
						{
							OFFSET 0.000000 0.000000 0.000000
							CHANNELS 3 Xrotation Yrotation Zrotation
							JOINT Neck
							{
								OFFSET 0.000000 9.624100 -2.890100
								CHANNELS 3 Xrotation Yrotation Zrotation
								JOINT Head
								{
									OFFSET 0.000000 14.068802 -1.351900
									CHANNELS 3 Xrotation Yrotation Zrotation
									End Site
									{
										OFFSET 0 0 0
									}
								}
							}
						}
						JOINT LeftShoulder_virtual
						{
							OFFSET 0.000000 0.000000 0.000000
							CHANNELS 3 Xrotation Yrotation Zrotation
							JOINT LeftShoulder
							{
								OFFSET 15.263000 10.923401 -0.547700
								CHANNELS 3 Xrotation Yrotation Zrotation
								JOINT LeftArm
								{
									OFFSET 25.438599 -2.830597 -13.032500
									CHANNELS 3 Xrotation Yrotation Zrotation
									JOINT LeftForeArm
									{
										OFFSET 29.960503 0.000000 0.000000
										CHANNELS 3 Xrotation Yrotation Zrotation
										JOINT LeftHand
										{
											OFFSET 27.849251 0.000000 0.000000
											CHANNELS 3 Xrotation Yrotation Zrotation
											End Site
											{
												OFFSET 0 0 0
											}
										}
									}
								}
							}
						}
						JOINT RightShoulder_virtual
						{
							OFFSET 0.000000 0.000000 0.000000
							CHANNELS 3 Xrotation Yrotation Zrotation
							JOINT RightShoulder
							{
								OFFSET -15.263000 10.923401 -0.547700
								CHANNELS 3 Xrotation Yrotation Zrotation
								JOINT RightArm
								{
									OFFSET -25.438599 -2.830597 -13.032500
									CHANNELS 3 Xrotation Yrotation Zrotation
									JOINT RightForeArm
									{
										OFFSET -29.960503 0.000000 0.000000
										CHANNELS 3 Xrotation Yrotation Zrotation
										JOINT RightHand
										{
											OFFSET -27.849251 0.000000 0.000000
											CHANNELS 3 Xrotation Yrotation Zrotation
											End Site
											{
												OFFSET 0 0 0
											}
										}
									}
								}
							}
						}
					}
				}
			}
		}
	}
}
MOTION
Frames: 11
Frame Time: 0.03333333
-1.415801 94.924423 4.341805 0.000000 0.000000 0.000000 -5.480808 -12.103210 -1.139327 1.631700 21.306678 1.178154 16.733274 4.377629 1.238334 -13.271110 -0.908176 -2.043949 0.000000 0.000000 0.000000 -5.480808 -12.103210 -1.139327 -7.305669 -8.066748 -13.300375 13.281821 -12.987507 -0.096872 2.202806 -0.706191 11.123317 0.000000 0.000000 0.000000 -5.480808 -12.103210 -1.139327 0.000000 0.000001 0.000000 12.261128 1.524593 -1.573198 -3.993953 -8.493236 0.813504 0.000000 0.000000 0.000000 -5.969560 4.580066 -2.629903 2.251065 0.004247 0.016559 0.000000 0.000000 0.000000 -5.969560 4.580066 -2.629903 4.233562 -14.085162 -0.897021 5.919386 4.805980 -79.119402 2.144048 -12.162864 0.993675 0.000000 0.000000 0.000000 -5.969560 4.580066 -2.629903 3.456615 7.912194 4.381425 4.870324 0.880825 78.811825 0.216081 17.510300 -0.089632 0.000000 0.000000 0.000000 
-1.488020 94.854156 4.189674 0.000000 0.000000 0.000000 -5.402035 -11.735293 -1.157425 0.709554 21.336789 1.622128 17.764219 3.878981 1.215079 -13.532440 -0.841693 -1.989599 0.000000 0.000000 0.000000 -5.402035 -11.735293 -1.157425 -7.566598 -8.016946 -13.221085 13.741360 -13.032523 -0.134026 1.949229 -0.678187 11.182576 0.000000 0.000000 0.000000 -5.402035 -11.735293 -1.157425 0.000000 -0.000001 0.000000 12.262537 1.541680 -1.742140 -4.018683 -8.493298 0.862146 0.000000 0.000000 0.000000 -6.005033 4.580154 -2.583796 2.232179 -0.021781 0.044670 0.000000 0.000000 0.000000 -6.005033 4.580154 -2.583796 4.037698 -13.737899 -1.155442 5.705735 4.632385 -78.161488 2.775911 -11.939533 0.681362 0.000000 0.000000 0.000000 -6.005033 4.580154 -2.583796 3.306760 7.693740 4.690967 5.157375 2.358698 78.058919 0.618397 17.828501 0.086458 0.000000 0.000000 0.000000 
-1.498432 94.754852 3.961924 0.000000 0.000000 0.000000 -5.115950 -11.259371 -1.253181 -0.851627 21.465768 2.297502 19.296376 3.032318 1.178425 -13.940695 -0.666334 -1.783090 0.000000 0.000000 0.000000 -5.115950 -11.259371 -1.253181 -7.892718 -7.989700 -13.002576 13.878615 -13.314664 -0.226582 1.921401 -0.548680 11.253842 0.000000 0.000000 0.000000 -5.115950 -11.259371 -1.253181 0.000000 0.000000 0.000000 12.031830 1.501932 -1.777141 -4.022317 -8.545088 0.875560 0.000000 0.000000 0.000000 -5.995742 4.530750 -2.565628 2.233565 -0.035359 0.065073 0.000000 0.000000 0.000000 -5.995742 4.530750 -2.565628 3.847714 -13.403309 -1.405391 5.532353 4.526087 -77.236988 3.314027 -11.916834 0.364361 0.000000 0.000000 0.000000 -5.995742 4.530750 -2.565628 3.160101 7.466490 4.995546 5.215058 3.771391 77.294997 1.040018 17.904625 0.279770 0.000000 0.000000 0.000000 
-1.469228 94.646111 3.702980 0.000000 0.000000 0.000000 -4.821271 -10.793166 -1.360336 -2.461366 21.683219 3.021931 20.816398 3.276093 1.205854 -14.342759 -1.637759 -1.905243 0.000000 0.000000 0.000000 -4.821271 -10.793166 -1.360336 -8.245818 -7.957136 -12.815514 13.991809 -13.645436 -0.321848 1.942277 -0.359033 11.351490 0.000000 0.000000 0.000000 -4.821271 -10.793166 -1.360336 0.000000 -0.000001 0.000000 11.804689 1.453428 -1.773021 -4.021571 -8.603173 0.869361 0.000000 0.000000 0.000000 -5.990046 4.474534 -2.565252 2.242372 -0.060969 0.083569 0.000000 0.000000 0.000000 -5.990046 4.474534 -2.565252 3.662325 -13.070530 -1.648167 5.339322 4.445792 -76.353005 3.819322 -12.052618 0.052223 0.000000 0.000000 0.000000 -5.990046 4.474534 -2.565252 3.014129 7.214281 5.302226 5.073867 4.893758 76.538355 1.483908 17.779551 0.540806 0.000000 0.000000 0.000000 
-1.344079 94.525185 3.386623 0.000000 0.000000 0.000000 -4.634013 -10.452590 -1.444618 -3.893074 22.024990 3.561295 22.249201 2.846559 1.194438 -14.702558 -1.961014 -1.690008 0.000000 0.000000 0.000000 -4.634013 -10.452590 -1.444618 -8.681814 -7.883427 -12.812119 14.251580 -13.862149 -0.369890 1.994758 -0.135931 11.491748 0.000000 0.000000 0.000000 -4.634013 -10.452590 -1.444618 0.000000 0.000000 0.000000 11.755357 1.415456 -1.762349 -4.019513 -8.647274 0.852223 0.000000 0.000000 0.000000 -5.999136 4.429884 -2.578217 2.250724 -0.094242 0.100314 0.000000 0.000000 0.000000 -5.999136 4.429884 -2.578217 3.481329 -12.737610 -1.884067 5.205358 4.394298 -75.517495 4.278822 -12.401801 -0.251138 0.000000 0.000000 0.000000 -5.999136 4.429884 -2.578217 2.869878 6.911948 5.597215 4.698837 5.508277 75.841860 1.984556 17.408124 0.926951 0.000000 0.000000 0.000000 
-1.105578 94.382950 2.984440 0.000000 0.000000 0.000000 -4.332675 -10.231100 -1.535324 -5.525223 22.470161 4.050858 23.740809 2.443134 1.185561 -15.059616 -2.298307 -1.350560 0.000000 0.000000 0.000000 -4.332675 -10.231100 -1.535324 -9.285888 -7.775403 -12.910955 14.370399 -14.012226 -0.332328 2.253082 0.116220 11.608824 0.000000 0.000000 0.000000 -4.332675 -10.231100 -1.535324 0.000000 0.000000 0.000000 11.616834 1.375720 -1.765327 -4.002080 -8.711186 0.880598 0.000000 0.000000 0.000000 -5.995279 4.369637 -2.543675 2.231522 -0.137053 0.121493 0.000000 0.000000 0.000000 -5.995279 4.369637 -2.543675 3.303996 -12.396700 -2.113944 4.900780 4.265181 -74.848799 4.577800 -12.645121 -0.596850 0.000000 0.000000 0.000000 -5.995279 4.369637 -2.543675 2.733284 6.607556 5.869517 4.319522 5.743770 75.143733 2.550495 17.078111 1.382625 0.000000 0.000000 0.000000 
-0.698517 94.230789 2.467951 0.000000 0.000000 0.000000 -3.842838 -10.259063 -1.658986 -7.387862 23.021860 4.448135 25.210901 2.157872 1.182116 -15.388143 -2.599522 -0.852169 0.000000 0.000000 0.000000 -3.842838 -10.259063 -1.658986 -10.122650 -7.627163 -13.099811 14.012961 -13.890715 -0.159639 2.985172 0.479887 11.543416 0.000000 0.000000 0.000000 -3.842838 -10.259063 -1.658986 0.000000 0.000000 0.000000 11.302559 1.344375 -1.718936 -3.957095 -8.773484 0.907031 0.000000 0.000000 0.000000 -5.957068 4.311465 -2.511667 2.188243 -0.185186 0.173603 0.000000 0.000000 0.000000 -5.957068 4.311465 -2.511667 3.129917 -12.041343 -2.338454 4.542502 4.070560 -74.271402 4.740074 -13.008835 -0.968566 0.000000 0.000000 0.000000 -5.957068 4.311465 -2.511667 2.593979 6.341082 6.188749 3.979821 5.914470 74.320477 3.163629 16.757825 1.845599 0.000000 0.000000 0.000000 
-0.219916 94.131363 1.920578 0.000000 0.000000 0.000000 -3.595769 -10.729016 -1.697845 -8.434146 23.731824 4.427589 25.960735 2.096477 1.187057 -15.490166 -2.761985 -0.326921 0.000000 0.000000 0.000000 -3.595769 -10.729016 -1.697845 -11.566274 -7.327012 -13.482348 14.481220 -13.182618 0.136818 3.704460 0.944506 10.849508 0.000000 0.000000 0.000000 -3.595769 -10.729016 -1.697845 0.000000 -0.000001 0.000000 11.334700 1.349256 -1.930232 -3.951498 -8.771146 0.971270 0.000000 0.000000 0.000000 -5.965581 4.308960 -2.448210 2.135515 -0.209967 0.230775 0.000000 0.000000 0.000000 -5.965581 4.308960 -2.448210 2.958826 -11.665140 -2.557995 4.270705 3.837311 -73.705309 4.702373 -13.511342 -1.384559 0.000000 0.000000 0.000000 -5.965581 4.308960 -2.448210 2.440841 6.080229 6.627439 3.700329 5.911081 73.442292 3.856666 16.453839 2.361216 0.000000 0.000000 0.000000 
0.346062 94.140701 1.348661 0.000000 0.000000 0.000000 -3.876241 -12.043299 -1.565923 -7.820053 24.657963 3.576718 25.380491 2.500486 1.210711 -15.213826 -2.603375 0.161571 0.000000 0.000000 0.000000 -3.876241 -12.043299 -1.565923 -12.978176 -6.942046 -14.213198 14.704475 -11.508088 0.353150 5.105371 1.355512 10.243890 0.000000 0.000000 0.000000 -3.876241 -12.043299 -1.565923 0.000000 0.000000 0.000000 12.062132 1.413675 -2.678553 -4.012496 -8.643133 1.130685 0.000000 0.000000 0.000000 -6.057994 4.397230 -2.296091 2.064096 -0.159429 0.327502 0.000000 0.000000 0.000000 -6.057994 4.397230 -2.296091 2.790516 -11.261501 -2.773107 4.071551 3.589802 -73.128575 4.466767 -14.060427 -1.860162 0.000000 0.000000 0.000000 -6.057994 4.397230 -2.296091 2.290484 5.847875 7.102395 3.364611 5.746461 72.612322 4.636316 15.991066 2.900918 0.000000 0.000000 0.000000 
0.947174 94.215546 0.756517 0.000000 0.000000 0.000000 -4.509748 -14.039554 -1.344712 -6.031155 25.687950 2.121236 23.843791 3.276110 1.250873 -14.668706 -2.174346 0.583478 0.000000 0.000000 0.000000 -4.509748 -14.039554 -1.344712 -14.649484 -6.505576 -15.092083 15.152811 -8.912681 0.391149 6.878815 1.544636 10.038182 0.000000 0.000000 0.000000 -4.509748 -14.039554 -1.344712 0.000000 0.000000 0.000000 13.225615 1.509560 -3.809483 -4.104823 -8.419991 1.367172 0.000000 0.000000 0.000000 -6.192804 4.529542 -2.063118 1.980496 -0.087222 0.433890 0.000000 0.000000 0.000000 -6.192804 4.529542 -2.063118 2.624157 -10.810204 -2.983013 3.940297 3.311695 -72.533529 3.861666 -14.495331 -2.467739 0.000000 0.000000 0.000000 -6.192804 4.529542 -2.063118 2.149972 5.627239 7.539737 2.945884 5.686744 71.860714 5.365912 15.420687 3.382530 0.000000 0.000000 0.000000 
1.500064 94.250824 0.116947 0.000000 0.000000 0.000000 -5.072942 -16.198009 -1.207698 -4.503492 26.679805 0.811131 22.546502 4.123321 1.300748 -14.221454 -1.676620 0.934077 0.000000 0.000000 0.000000 -5.072942 -16.198009 -1.207698 -16.529562 -6.241090 -16.234712 15.833239 -5.971969 0.433209 8.555269 1.908967 11.642862 0.000000 0.000000 0.000000 -5.072942 -16.198009 -1.207698 0.000000 -0.000001 0.000000 14.337733 1.585060 -4.951232 -4.197041 -8.197924 1.636811 0.000000 0.000000 0.000000 -6.328232 4.620301 -1.781729 1.830719 0.058459 0.506017 0.000000 0.000000 0.000000 -6.328232 4.620301 -1.781729 2.457743 -10.254183 -3.214392 3.650469 2.894439 -71.828715 2.634924 -14.381339 -3.297060 0.000000 0.000000 0.000000 -6.328232 4.620301 -1.781729 2.019138 5.423286 7.925343 2.649160 5.818625 71.184614 5.957168 15.104140 3.783969 0.000000 0.000000 0.000000 
